<svg width="333" height="77" viewBox="0 0 333 77" fill="none" xmlns="http://www.w3.org/2000/svg">
<path fill-rule="evenodd" clip-rule="evenodd" d="M29.0407 53.9C26.4733 53.9 24.0111 52.8859 22.1957 51.0809C20.3803 49.2759 19.3605 46.8277 19.3605 44.275V0H0V44.275C0 60.2217 13.0025 73.15 29.0407 73.15H50.3372V53.9H29.0407ZM87.1221 19.25C84.8339 19.25 82.5681 19.6981 80.454 20.5688C78.34 21.4394 76.4192 22.7156 74.8012 24.3244C73.1832 25.9331 71.8997 27.843 71.024 29.945C70.1484 32.047 69.6977 34.2998 69.6977 36.575C69.6977 38.8502 70.1484 41.103 71.024 43.205C71.8997 45.307 73.1832 47.2168 74.8012 48.8256C76.4192 50.4344 78.34 51.7106 80.454 52.5812C82.5681 53.4519 84.8339 53.9 87.1221 53.9C91.7433 53.9 96.1753 52.0747 99.443 48.8256C102.711 45.5766 104.547 41.1699 104.547 36.575C104.547 31.9801 102.711 27.5734 99.443 24.3244C96.1753 21.0753 91.7433 19.25 87.1221 19.25ZM50.3372 36.575C50.3372 16.376 66.8072 0 87.1221 0C107.437 0 123.907 16.376 123.907 36.575C123.907 56.774 107.437 73.15 87.1221 73.15C66.8072 73.15 50.3372 56.774 50.3372 36.575ZM296.215 19.25C291.594 19.25 287.162 21.0753 283.894 24.3244C280.626 27.5734 278.791 31.9801 278.791 36.575C278.791 41.1699 280.626 45.5766 283.894 48.8256C287.162 52.0747 291.594 53.9 296.215 53.9C300.836 53.9 305.268 52.0747 308.536 48.8256C311.804 45.5766 313.64 41.1699 313.64 36.575C313.64 31.9801 311.804 27.5734 308.536 24.3244C305.268 21.0753 300.836 19.25 296.215 19.25ZM259.43 36.575C259.43 16.376 275.9 0 296.215 0C316.53 0 333 16.376 333 36.575C333 56.774 316.53 73.15 296.215 73.15C275.9 73.15 259.43 56.774 259.43 36.575ZM164.564 0C144.249 0 127.779 16.376 127.779 36.575C127.779 56.774 144.249 73.15 164.564 73.15H218.773C222.585 73.15 226.262 72.5725 229.72 71.5022L240.07 77L251.237 56.2023C254.074 50.9079 255.558 45.0012 255.558 39.0024V36.575C255.558 16.376 239.088 0 218.773 0H164.564ZM236.198 36.575C236.198 31.9801 234.362 27.5734 231.094 24.3244C227.826 21.0753 223.395 19.25 218.773 19.25H164.564C162.276 19.25 160.01 19.6981 157.896 20.5688C155.782 21.4394 153.861 22.7156 152.243 24.3244C150.625 25.9331 149.342 27.843 148.466 29.945C147.59 32.047 147.14 34.2998 147.14 36.575C147.14 38.8502 147.59 41.103 148.466 43.205C149.342 45.307 150.625 47.2168 152.243 48.8256C153.861 50.4344 155.782 51.7106 157.896 52.5812C160.01 53.4519 162.276 53.9 164.564 53.9H218.773C223.371 53.9001 227.783 52.0933 231.047 48.8734C234.31 45.6534 236.162 41.2812 236.198 36.7097V36.575Z" fill="white"/>
</svg>
