<svg width="864" height="864" viewBox="0 0 864 864" fill="none" xmlns="http://www.w3.org/2000/svg">
<path d="M661.513 383.517C673.538 347.494 669.397 308.034 650.166 275.268C621.246 225.012 563.108 199.156 506.328 211.324C481.068 182.922 444.777 166.771 406.73 167.002C348.691 166.87 297.195 204.165 279.339 259.282C242.054 266.903 209.871 290.196 191.038 323.21C161.903 373.333 168.545 436.517 207.469 479.499C195.444 515.522 199.585 554.983 218.815 587.748C247.736 638.004 305.874 663.86 362.654 651.693C387.897 680.094 424.205 696.245 462.252 695.997C520.324 696.146 571.837 658.818 589.692 603.652C626.977 596.031 659.16 572.738 677.993 539.724C707.096 489.6 700.437 426.466 661.529 383.484L661.513 383.517ZM462.285 661.43C439.046 661.463 416.536 653.346 398.697 638.484C399.508 638.054 400.916 637.277 401.827 636.715L507.371 575.879C512.771 572.82 516.084 567.084 516.05 560.884V412.381L560.656 438.088C561.137 438.319 561.451 438.782 561.518 439.311V562.29C561.451 616.976 517.077 661.314 462.285 661.43ZM248.878 570.456C237.234 550.387 233.044 526.862 237.035 504.032C237.814 504.495 239.189 505.338 240.166 505.9L345.71 566.737C351.06 569.861 357.685 569.861 363.052 566.737L491.901 492.477V543.89C491.934 544.419 491.685 544.931 491.271 545.262L384.585 606.743C337.063 634.053 276.374 617.819 248.895 570.456H248.878ZM221.101 340.518C232.696 320.416 250.999 305.041 272.796 297.057C272.796 297.966 272.747 299.569 272.747 300.694V422.383C272.714 428.565 276.026 434.302 281.41 437.36L410.258 511.604L365.652 537.31C365.205 537.608 364.642 537.658 364.145 537.443L257.442 475.912C210.02 448.503 193.755 387.947 221.085 340.535L221.101 340.518ZM587.589 425.639L458.74 351.379L503.346 325.689C503.793 325.392 504.356 325.342 504.853 325.557L611.556 387.038C659.061 414.431 675.343 475.085 647.897 522.498C636.286 542.567 618 557.942 596.219 565.943V440.617C596.268 434.434 592.972 428.714 587.605 425.639H587.589ZM631.98 358.951C631.201 358.471 629.826 357.645 628.849 357.083L523.305 296.247C517.955 293.122 511.33 293.122 505.963 296.247L377.114 370.507V319.093C377.081 318.564 377.33 318.052 377.744 317.721L484.43 256.29C531.952 228.93 592.707 245.213 620.103 292.659C631.681 312.695 635.872 336.154 631.946 358.951H631.98ZM352.865 450.586L308.243 424.879C307.762 424.647 307.448 424.185 307.381 423.656V300.677C307.414 245.924 351.921 201.554 406.78 201.587C429.986 201.587 452.446 209.72 470.285 224.532C469.473 224.962 468.082 225.739 467.154 226.301L361.611 287.138C356.211 290.196 352.898 295.916 352.931 302.115L352.865 450.553V450.586ZM377.098 398.445L434.491 365.365L491.884 398.428V464.571L434.491 497.635L377.098 464.571V398.445Z" fill="#0BA27F"/>
</svg>
