<svg width="864" height="864" viewBox="0 0 864 864" fill="none" xmlns="http://www.w3.org/2000/svg">
<path d="M583.981 156.151L426.218 314.064H583.981V156.151ZM583.981 156.151V199.385M425.852 132.923V731.077M583.981 471.943L426.218 314.031M583.981 471.943V698.328L426.218 540.415M583.981 471.943L426.201 314.031M583.981 471.943L583.964 539.502H651.672V314.031H426.201M426.218 314.031V540.415M426.218 314.031L268.438 471.943M426.218 540.415L268.438 698.328V471.943M268.438 471.943L268.422 539.502H200.73V314.031H426.201M268.438 471.943L426.201 314.031M426.201 314.064L268.422 156.151V314.064H426.201Z" stroke="white" stroke-width="16.6154" stroke-miterlimit="10"/>
</svg>
